<?xml version="1.0" encoding="UTF-8" standalone="no"?>
<svg
   xmlns:dc="http://purl.org/dc/elements/1.1/"
   xmlns:cc="http://creativecommons.org/ns#"
   xmlns:rdf="http://www.w3.org/1999/02/22-rdf-syntax-ns#"
   xmlns:svg="http://www.w3.org/2000/svg"
   xmlns="http://www.w3.org/2000/svg"
   id="svg58"
   xml:space="preserve"
   viewBox="0 0 633 722"
   height="722"
   width="633"
   version="1.1"><metadata
     id="metadata62"><rdf:RDF><cc:Work
         rdf:about=""><dc:format>image/svg+xml</dc:format><dc:type
           rdf:resource="http://purl.org/dc/dcmitype/StillImage" /></cc:Work></rdf:RDF></metadata><desc
     id="desc2">Created with Fabric.js 2.4.6</desc><defs
     id="defs4" /><g
     id="g10"
     transform="translate(306.55,579.94)"><g
       id="text8"
       style="font-style:normal;font-weight:normal;font-size:447px;font-family:Ubuntu;white-space:pre;opacity:1;fill:#000000;fill-rule:nonzero;stroke:none;stroke-width:1;stroke-linecap:butt;stroke-linejoin:miter;stroke-miterlimit:4;stroke-dasharray:none;stroke-dashoffset:0"
       aria-label="v"><path
         id="path64"
         style=""
         d="m 105.042,-92.020002 q -17.432997,65.262 -41.123997,125.16 -23.244,59.898 -45.147,107.280002 h -37.548 q -21.903,-47.382002 -45.594,-107.280002 -23.244,-59.898 -40.677003,-125.16 h 44.700003 q 5.364,21.903 12.516,46.935 7.599,24.585 15.645,49.1700002 8.493,24.1379998 16.986,46.9349998 8.4930001,22.797 16.09200005,40.677 7.59900005,-17.88 16.09199995,-40.677 8.493,-22.797 16.539,-46.9349998 8.493,-24.5850002 15.645,-49.1700002 7.599,-25.032 12.963,-46.935 z" /></g></g><g
     id="g14"
     transform="matrix(1.4,0,0,15.15,306.56,474.64)"><path
       id="line12"
       d="M -75,0 H 75"
       style="opacity:1;fill:#000000;fill-rule:nonzero;stroke:#000000;stroke-width:2;stroke-linecap:butt;stroke-linejoin:miter;stroke-miterlimit:4;stroke-dasharray:none;stroke-dashoffset:0" /></g><g
     id="g32"
     transform="matrix(4.69,0,0,4.69,339.1,245.6)"><g
       id="g18"
       transform="matrix(1.08,0,0,1.08,-17.99,28.89)"><path
         id="path16"
         d="M 41.708,69.959 33.55,93.231 c -0.793,2.623 -3.561,4.107 -6.184,3.315 -2.563,-0.773 -4.037,-3.445 -3.363,-6.015 l 7.872,-29.407 c 0.25,1.084 0.583,1.584 1.083,1.959 z"
         transform="translate(-32.77,-78.94)"
         style="opacity:1;fill:#000000;fill-rule:nonzero;stroke:none;stroke-width:1;stroke-linecap:butt;stroke-linejoin:miter;stroke-miterlimit:4;stroke-dasharray:none;stroke-dashoffset:0" /></g><g
       id="g22"
       transform="matrix(1.08,0,0,1.08,-20.47,-17.01)"><path
         id="path20"
         d="m 23.625,43.5 c 0.473,4.646 2.042,7.667 6.042,11.167 L 38,24.167 C 24,10.75 21.5,22.625 23.625,43.5 Z"
         transform="translate(-30.48,-36.57)"
         style="opacity:1;fill:#000000;fill-rule:nonzero;stroke:none;stroke-width:1;stroke-linecap:butt;stroke-linejoin:miter;stroke-miterlimit:4;stroke-dasharray:none;stroke-dashoffset:0" /></g><g
       id="g26"
       transform="matrix(1.08,0,0,1.08,3.36,-39.53)"><path
         id="path24"
         d="m 52.132,23.803 c 4.379,0.248 8.173,-3.324 8.291,-7.812 0.119,-4.495 -3.417,-8.261 -7.813,-8.308 -4.368,-0.05 -8.091,3.692 -8.071,8.11 0.018,4.217 3.391,7.771 7.593,8.01 z"
         transform="translate(-52.48,-15.75)"
         style="opacity:1;fill:#000000;fill-rule:nonzero;stroke:none;stroke-width:1;stroke-linecap:butt;stroke-linejoin:miter;stroke-miterlimit:4;stroke-dasharray:none;stroke-dashoffset:0" /></g><g
       id="g30"
       transform="matrix(1.08,0,0,1.08,5.62,8.75)"><path
         id="path28"
         d="m 74.375,51.292 c 0,0 -25.041,-25.792 -22.208,-22.792 -6,-6.333 -10.128,-5.9 -12.14,1.9 l -6.193,22.934 c -1.167,4.416 0.75,6.208 2,7.291 L 52.5,73.959 52.542,91.876 c 0,2.738 2.262,4.833 5,4.833 2.738,0 4.708,-2.233 4.708,-4.972 v -20 c -0.125,-1.57 -0.375,-2.903 -1.542,-3.903 l -14,-12.042 5.833,-16.583 17.125,16.625 v 39.042 c -0.069,1.172 0.999,1.833 1.791,1.833 0.792,0 1.517,-0.663 1.584,-1.792 l 0.023,-37.84 c 0.857,-0.239 1.469,-0.552 1.977,-1.368 1.077,-1.732 1.001,-2.584 -0.666,-4.417 z"
         transform="translate(-54.61,-60.41)"
         style="opacity:1;fill:#000000;fill-rule:nonzero;stroke:none;stroke-width:1;stroke-linecap:butt;stroke-linejoin:miter;stroke-miterlimit:4;stroke-dasharray:none;stroke-dashoffset:0" /></g></g><g
     id="g38"
     transform="translate(88.89,604.68)"><g
       id="text36"
       style="font-style:normal;font-weight:normal;font-size:369px;font-family:Roboto;white-space:pre;opacity:1;fill:#000000;fill-rule:nonzero;stroke:none;stroke-width:1;stroke-linecap:butt;stroke-linejoin:miter;stroke-miterlimit:4;stroke-dasharray:none;stroke-dashoffset:0"
       aria-label="P"><path
         id="path68"
         style=""
         d="M -43.77916,-123.17326 V -22.09465 H 1.9854889 q 25.4047851,0 39.2783201,-13.152832 13.873535,-13.152832 13.873535,-37.476563 0,-24.143554 -13.873535,-37.296385 -13.873535,-13.15283 -39.2783201,-13.15283 z m -36.395507,-29.90918 H 1.9854889 q 45.2241211,0 68.2866211,20.54004 23.242676,20.35986 23.242676,59.818355 0,39.818848 -23.242676,60.178711 Q 47.20961,7.8145294 1.9854889,7.8145294 H -43.77916 V 115.92 h -36.395507 z" /></g></g><g
     id="g44"
     transform="translate(528,602.96)"><g
       id="text42"
       style="font-style:normal;font-weight:normal;font-size:363px;font-family:Lato;white-space:pre;opacity:1;fill:#000000;fill-rule:nonzero;stroke:none;stroke-width:1;stroke-linecap:butt;stroke-linejoin:miter;stroke-miterlimit:4;stroke-dasharray:none;stroke-dashoffset:0"
       aria-label="U"><path
         id="path71"
         style=""
         d="m 1.084,86.078999 q 16.1535,0 28.8585,-5.445 12.705,-5.445 21.417,-15.246 8.8935,-9.801 13.431,-23.4135 4.719,-13.6125 4.719,-29.9475 V -146.0595 H 104.539 V 12.026999 q 0,22.506 -7.26,41.745 -7.0785,19.239 -20.5095,33.396 Q 63.52,101.1435 44.281,109.1295 q -19.239,7.986 -43.197,7.986 -23.958,0 -43.197,-7.986 -19.239,-7.986 -32.67,-21.961501 -13.431,-14.157 -20.691,-33.396 -7.0785,-19.239 -7.0785,-41.745 V -146.0595 H -67.523 V 11.845499 q 0,16.335 4.5375,29.9475 4.719,13.6125 13.431,23.4135 8.8935,9.801 21.5985,15.4275 12.8865,5.445 29.04,5.445 z" /></g></g><g
     id="g48"
     transform="matrix(1.74,0,0,13.77,297.8,574.47)"><path
       id="line46"
       d="M -75,0 H 75"
       style="opacity:1;fill:#000000;fill-rule:nonzero;stroke:#000000;stroke-width:2;stroke-linecap:butt;stroke-linejoin:miter;stroke-miterlimit:4;stroke-dasharray:none;stroke-dashoffset:0" /></g><g
     id="g52"
     transform="translate(362,54.8)"><path
       id="circle50"
       d="M 50,0 A 50,50 0 0 1 0,50 50,50 0 0 1 -50,0 50,50 0 0 1 0,-50 50,50 0 0 1 50,0 Z"
       style="opacity:1;fill:#1baa20;fill-rule:nonzero;stroke:#000000;stroke-width:0;stroke-linecap:butt;stroke-linejoin:miter;stroke-miterlimit:4;stroke-dasharray:none;stroke-dashoffset:0" /></g><g
     id="g56"
     transform="matrix(1.04,0,0,1.04,361.77,54.52)"><path
       id="path54"
       d="M 49.994,0 C 22.431,0 0,22.429 0,50 0,77.57 22.431,100 49.994,100 77.568,100 100,77.57 100,50 100,22.429 77.568,0 49.994,0 Z m 43.447,31.412 -3.039,-0.903 -3.812,-4.519 -1.131,0.14 2.305,3.284 -1.925,2.113 -0.192,-1.921 c 0,0 -2.489,-3.267 -2.687,-3.843 -0.192,-0.576 -7.243,6.158 -7.243,6.158 l 5.791,-0.142 1.27,1.835 6.5,0.284 5.596,1.335 c 1.535,4.652 2.391,9.607 2.391,14.766 0,8.233 -2.123,15.978 -5.841,22.728 l -4.124,0.571 -2.971,-6.989 -0.843,-14.401 -11.225,0.208 -4.873,-8.05 4.873,-11.013 2.537,-1.06 -2.328,-1.483 0.422,-3.814 3.81,-1.272 -0.209,-2.964 6.354,-5.72 -0.188,-0.82 c 4.557,4.366 8.262,9.613 10.782,15.492 z M 45.967,97.063 C 45.9,97.057 45.825,97.059 45.759,97.052 l 0.229,-0.237 z m 20.31,-91.38 c 0.647,0.24 1.314,0.449 1.949,0.716 L 65.05,7.417 Z m 12.334,13.174 -3.813,2.119 -0.635,-2.543 -2.119,0.847 -1.061,-2.754 3.813,-4.874 z M 58.877,3.599 53.189,12.288 48.742,8.053 48.375,2.815 c 0.542,-0.017 1.076,-0.082 1.619,-0.082 3.041,0 6.004,0.315 8.883,0.866 z M 43.122,3.292 41.754,9.749 34.757,6.356 34.544,5.382 c 2.753,-0.957 5.62,-1.656 8.578,-2.09 z m -16.202,5.497 -1.277,1.807 7.21,6.989 2.328,-2.328 -0.425,-5.299 7.844,1.911 5.503,11.016 -11.437,5.929 -3.813,6.78 0.638,3.388 -8.691,-1.904 -0.847,4.448 5.086,-0.849 3.179,6.567 2.754,0.638 4.661,-1.485 10.381,4.875 8.474,5.512 -2.967,9.104 -10.593,9.532 -5.086,11.016 0.847,2.967 -4.444,-3.178 1.269,-22.457 -4.869,-8.471 1.898,-5.718 L 32.006,49.155 27.129,45.34 19.506,42.586 8.917,30.085 9.009,26.564 C 13.272,19.145 19.468,12.984 26.92,8.789 Z M 39.634,43.431 30.947,41.1 36.459,40.464 Z"
       transform="translate(-50,-50)"
       style="opacity:1;fill:#00bad4;fill-rule:nonzero;stroke:none;stroke-width:1;stroke-linecap:butt;stroke-linejoin:miter;stroke-miterlimit:4;stroke-dasharray:none;stroke-dashoffset:0" /></g></svg>